<svg xmlns="http://www.w3.org/2000/svg" xmlns:xlink="http://www.w3.org/1999/xlink" width="693.378" height="586.347"><defs><linearGradient id="b"><stop offset="0" stop-color="#1b561b"/><stop offset="1" stop-color="#267626"/></linearGradient><linearGradient id="a"><stop offset="0"/><stop offset="1" stop-opacity="0"/></linearGradient><linearGradient id="c" x1="351.86" x2="350.941" y1="657.606" y2="508.861" gradientTransform="matrix(3.73431 0 0 3.73431 -969.841 -1888.906)" gradientUnits="userSpaceOnUse" xlink:href="#b"/></defs><path fill="none" d="M413.613 85.994c-24.848-19.342-45.459-35.366-45.801-35.608-.55-.388.47-1.341 8.68-8.118 5.117-4.223 9.455-7.678 9.64-7.678.184 0 8.305 6.642 18.047 14.76 9.741 8.118 17.775 14.696 17.854 14.617.21-.21-10.276-52.414-10.527-52.406-.118.004-5.83 4.664-12.694 10.357-6.864 5.693-12.576 10.35-12.695 10.35-.39 0-16.611-13.653-16.611-13.98 0-.177 13.66-11.305 30.357-24.73 26.982-21.696 30.385-24.326 30.607-23.653.137.416 6.609 34.185 14.38 75.042 7.773 40.857 14.222 74.727 14.333 75.268.11.54.068.974-.095.964-.163-.01-20.627-15.843-45.475-35.185z"/><path fill="none" d="M357.116 42.157c-4.85-3.769-8.82-6.933-8.821-7.032-.006-.39 19.251-15.533 19.707-15.496.566.046 16.682 13.314 16.682 13.735 0 .246-18.436 15.724-18.662 15.668-.048-.011-4.056-3.105-8.906-6.875z"/><path fill="none" d="M357.116 42.157c-4.85-3.769-8.82-6.933-8.821-7.032-.006-.39 19.251-15.533 19.707-15.496.566.046 16.682 13.314 16.682 13.735 0 .246-18.436 15.724-18.662 15.668-.048-.011-4.056-3.105-8.906-6.875z"/><path fill="none" d="M278.784 120.768c.106-.451 6.541-34.17 14.3-74.928 7.76-40.76 14.227-74.717 14.372-75.462l.264-1.355 29.55 24.626 29.55 24.626-9.798 7.89c-5.39 4.339-9.895 7.889-10.013 7.889-.117 0-6.43-4.836-14.026-10.746-11.798-9.179-13.853-10.651-14.086-10.09-.44 1.06-11.745 53.806-11.635 54.285.056.24 8.99-6.717 19.853-15.459 10.863-8.741 19.891-15.843 20.062-15.781.171.062 4.248 3.166 9.06 6.898 6.515 5.052 8.643 6.886 8.331 7.177-.23.215-16.893 14.03-37.027 30.7-20.133 16.67-39.384 32.614-42.779 35.43-4.528 3.758-6.12 4.903-5.978 4.3z"/><path fill="url(#c)" stroke="#232323" stroke-width="17.403" d="M163.79 173.12l-35.343 180.715L577.23 16.413l102.027 546.81-343.357-259.901 71.452-57.516 135.87 106.028-36.01-187.382-494.13 400.105L119.111 17.08l222.792 176.046-74.586 56.681z"/></svg>