<?xml version="1.0" encoding="UTF-8" standalone="no"?>
<!-- Created with Inkscape (http://www.inkscape.org/) -->

<svg
   xmlns:dc="http://purl.org/dc/elements/1.1/"
   xmlns:cc="http://creativecommons.org/ns#"
   xmlns:rdf="http://www.w3.org/1999/02/22-rdf-syntax-ns#"
   xmlns:svg="http://www.w3.org/2000/svg"
   xmlns="http://www.w3.org/2000/svg"
   xmlns:xlink="http://www.w3.org/1999/xlink"
   xmlns:sodipodi="http://sodipodi.sourceforge.net/DTD/sodipodi-0.dtd"
   xmlns:inkscape="http://www.inkscape.org/namespaces/inkscape"
   width="777.37775"
   height="759.34674"
   id="svg2"
   version="1.1"
   inkscape:version="0.92.2 (5c3e80d, 2017-08-06)"
   sodipodi:docname="logo.svg"
   inkscape:export-filename="D:\Everest\My Dropbox\avatar\morgal.png"
   inkscape:export-xdpi="173.66"
   inkscape:export-ydpi="173.66">
  <defs
     id="defs4">
    <linearGradient
       id="linearGradient3812">
      <stop
         style="stop-color:#7a747e;stop-opacity:1;"
         offset="0"
         id="stop3814" />
      <stop
         style="stop-color:#d4d4d2;stop-opacity:1;"
         offset="1"
         id="stop3816" />
    </linearGradient>
    <linearGradient
       inkscape:collect="always"
       id="linearGradient3780">
      <stop
         style="stop-color:#000000;stop-opacity:1;"
         offset="0"
         id="stop3782" />
      <stop
         style="stop-color:#000000;stop-opacity:0;"
         offset="1"
         id="stop3784" />
    </linearGradient>
    <linearGradient
       inkscape:collect="always"
       xlink:href="#linearGradient3780"
       id="linearGradient3786"
       x1="262.2233"
       y1="364.39276"
       x2="350.26901"
       y2="364.39276"
       gradientUnits="userSpaceOnUse" />
  </defs>
  <sodipodi:namedview
     id="base"
     pagecolor="#242424"
     bordercolor="#666666"
     borderopacity="1.0"
     inkscape:pageopacity="1"
     inkscape:pageshadow="2"
     inkscape:zoom="0.98994949"
     inkscape:cx="108.84988"
     inkscape:cy="359.00938"
     inkscape:document-units="px"
     inkscape:current-layer="layer1"
     showgrid="false"
     showguides="true"
     inkscape:guide-bbox="true"
     inkscape:window-width="1920"
     inkscape:window-height="1052"
     inkscape:window-x="1920"
     inkscape:window-y="0"
     inkscape:window-maximized="1"
     fit-margin-top="100"
     fit-margin-left="50"
     fit-margin-right="50"
     fit-margin-bottom="100" />
  <metadata
     id="metadata7">
    <rdf:RDF>
      <cc:Work
         rdf:about="">
        <dc:format>image/svg+xml</dc:format>
        <dc:type
           rdf:resource="http://purl.org/dc/dcmitype/StillImage" />
        <dc:title />
      </cc:Work>
    </rdf:RDF>
  </metadata>
  <g
     inkscape:label="Layer 1"
     inkscape:groupmode="layer"
     id="layer1"
     transform="translate(16.641643,-146.50772)">
    <path
       style="fill:none;stroke:none"
       d="m 397.06126,405.41544 c -24.84822,-19.34241 -45.45884,-35.36582 -45.80138,-35.60759 -0.54963,-0.38793 0.47032,-1.34179 8.68055,-8.11815 5.11685,-4.22321 9.45453,-7.67857 9.63928,-7.67857 0.18475,0 8.30607,6.64208 18.04737,14.76017 9.74129,8.1181 17.77561,14.69601 17.85403,14.61759 0.21079,-0.21078 -10.27526,-52.41468 -10.52675,-52.40652 -0.11799,0.004 -5.83029,4.66454 -12.69399,10.35714 -6.8637,5.69261 -12.57641,10.35019 -12.69491,10.35019 -0.3894,0 -16.61135,-13.65325 -16.61135,-13.98098 0,-0.17598 13.66072,-11.30428 30.35715,-24.72955 26.98239,-21.69602 30.38492,-24.3255 30.60701,-23.65311 0.13743,0.41608 6.60888,34.18507 14.38099,75.04221 7.77212,40.85714 14.22156,74.72768 14.33208,75.26786 0.11053,0.54018 0.0676,0.97431 -0.0953,0.96473 -0.16293,-0.01 -20.62659,-15.84302 -45.4748,-35.18542 z"
       id="path3788"
       inkscape:connector-curvature="0" />
    <path
       style="fill:none;stroke:none"
       d="m 340.56433,361.57892 c -4.8501,-3.76943 -8.81964,-6.93386 -8.82121,-7.03208 -0.006,-0.38991 19.25149,-15.53311 19.7069,-15.49641 0.56639,0.0456 16.68266,13.31445 16.68266,13.73512 0,0.24624 -18.43602,15.72424 -18.66277,15.66837 -0.048,-0.0118 -4.05549,-3.10557 -8.90558,-6.875 z"
       id="path3790"
       inkscape:connector-curvature="0" />
    <path
       style="fill:none;stroke:none"
       d="m 340.56433,361.57892 c -4.8501,-3.76943 -8.81964,-6.93386 -8.82121,-7.03208 -0.006,-0.38991 19.25149,-15.53311 19.7069,-15.49641 0.56639,0.0456 16.68266,13.31445 16.68266,13.73512 0,0.24624 -18.43602,15.72424 -18.66277,15.66837 -0.048,-0.0118 -4.05549,-3.10557 -8.90558,-6.875 z"
       id="path3792"
       inkscape:connector-curvature="0" />
    <path
       style="fill:none;stroke:none"
       d="m 262.23193,440.18997 c 0.10637,-0.45193 6.54192,-34.16991 14.30123,-74.92884 7.7593,-40.75893 14.2265,-74.71686 14.37153,-75.46206 l 0.26371,-1.35491 29.55031,24.62608 29.5503,24.62609 -9.79868,7.88954 c -5.38927,4.33925 -9.89494,7.88954 -10.01259,7.88954 -0.11765,0 -6.42967,-4.83588 -14.02672,-10.7464 -11.79738,-9.17841 -13.85264,-10.65053 -14.08581,-10.08929 -0.43998,1.05901 -11.74474,53.80603 -11.63436,54.2849 0.0552,0.23958 8.98864,-6.71681 19.85205,-15.45863 10.86341,-8.74184 19.89157,-15.84359 20.06258,-15.78169 0.17102,0.0619 4.24829,3.16611 9.0606,6.89826 6.51384,5.05174 8.6425,6.88572 8.33028,7.17707 -0.23067,0.21524 -16.8926,14.03042 -37.02653,30.70039 -20.13393,16.66998 -39.38458,32.61363 -42.77921,35.43035 -4.52846,3.75751 -6.12057,4.90248 -5.97869,4.2996 z"
       id="path3794"
       inkscape:connector-curvature="0" />
    <path
       style="fill:#ffffff;fill-opacity:1;stroke:#ffffff;stroke-width:1;stroke-linecap:butt;stroke-linejoin:miter;stroke-miterlimit:4;stroke-dasharray:none;stroke-opacity:1"
       d="M 189.66606,408.81695 154.32348,589.53101 603.10784,252.10919 705.13466,798.91931 361.7779,539.01781 433.22995,481.50266 569.09894,587.53049 533.08948,400.148 38.959827,800.25299 144.98766,252.77602 l 222.7918,176.04617 -74.58621,56.68153 z"
       id="path3810"
       inkscape:connector-curvature="0"
       sodipodi:nodetypes="ccccccccccccc" />
  </g>
</svg>
